<svg width="80" height="80" viewBox="0 0 80 80" fill="none" xmlns="http://www.w3.org/2000/svg">
<g clip-path="url(#clip0_2244_3785)">
<path d="M62.7833 1H17.2167C12.6505 1 8.2714 2.81389 5.04264 6.04264C1.81389 9.2714 0 13.6505 0 18.2167L0 61.7833C0 66.3495 1.81389 70.7286 5.04264 73.9574C8.2714 77.1861 12.6505 79 17.2167 79H62.7833C67.3495 79 71.7286 77.1861 74.9574 73.9574C78.1861 70.7286 80 66.3495 80 61.7833V18.2167C80 13.6505 78.1861 9.2714 74.9574 6.04264C71.7286 2.81389 67.3495 1 62.7833 1ZM42.43 55.97H34.8067C34.2733 55.97 33.8933 55.95 33.68 55.5933C32.9633 54.1967 32.2467 52.81 31.5333 51.4333C30.7957 50.0169 30.0356 48.6123 29.2533 47.22C28.4406 45.7789 27.6439 44.3288 26.8633 42.87H26.81C26.0875 44.3113 25.3452 45.7425 24.5833 47.1633C23.8167 48.5933 23.0533 50.0167 22.3033 51.43C21.554 52.8445 20.7862 54.249 20 55.6433C19.8533 55.9667 19.6033 56 19.2433 56H11.8933C11.75 56 11.67 56.0567 11.6533 55.9133C11.634 55.7822 11.6624 55.6486 11.7333 55.5367L22.09 38.52L12 21.46C11.89 21.3167 11.8733 21.2 11.9467 21.1033C11.9861 21.0571 12.036 21.0208 12.0922 20.9976C12.1485 20.9745 12.2094 20.965 12.27 20.97H19.8367C20.0016 20.9631 20.1661 20.9904 20.32 21.05C20.4477 21.1234 20.5572 21.2248 20.64 21.3467C21.2833 22.78 22 24.21 22.7867 25.64C23.5733 27.07 24.37 28.4833 25.1733 29.88C25.9767 31.2767 26.72 32.69 27.4 34.12H27.4533C28.1633 32.6533 28.8867 31.2233 29.6267 29.8267C30.3667 28.43 31.1167 27.0267 31.88 25.6133C32.65 24.1967 33.39 22.79 34.1067 21.4C34.1465 21.266 34.2199 21.1443 34.32 21.0467C34.4531 20.9804 34.602 20.9527 34.75 20.9667H41.78C41.8591 20.9474 41.9426 20.9601 42.0124 21.0018C42.0823 21.0436 42.1329 21.1112 42.1533 21.19C42.1674 21.2467 42.1651 21.3061 42.1468 21.3616C42.1285 21.417 42.095 21.4661 42.05 21.5033L42.0533 21.5167L32.07 37.9933L42.75 55.49C42.82 55.6133 42.8367 55.7567 42.8033 55.8933C42.77 56.0133 42.6467 55.9333 42.43 55.97ZM68.0333 54.57C66.2887 55.2967 64.4718 55.8364 62.6133 56.18C60.9125 56.4958 59.1866 56.6576 57.4567 56.6633C54.9873 56.6996 52.5407 56.1873 50.2933 55.1633C48.1996 54.1938 46.4492 52.6119 45.2733 50.6267C43.9811 48.3104 43.3493 45.6839 43.4467 43.0333C43.4268 40.5701 44.0569 38.1453 45.2733 36.0033C46.5266 33.8213 48.3692 32.0365 50.59 30.8533C53.3964 29.3868 56.5544 28.7268 59.7133 28.9467C60 28.9633 60.34 28.99 60.7333 29.0267V18.4533C60.7333 18.2033 60.84 18.0767 61.0567 18.0767H67.8167C67.8918 18.0662 67.968 18.0859 68.0286 18.1315C68.0892 18.1771 68.1293 18.2449 68.14 18.32C68.1433 18.3466 68.1433 18.3734 68.14 18.4V50.1233C68.14 50.7333 68.1667 51.3933 68.22 52.11C68.2733 52.8233 68.32 53.4667 68.3533 54.04C68.3603 54.1504 68.3334 54.2603 68.2762 54.355C68.219 54.4497 68.1343 54.5247 68.0333 54.57ZM59.8433 35.1967C60.1433 35.2267 60.44 35.28 60.73 35.3567V50.0067C60.3457 50.121 59.95 50.1925 59.55 50.22C59.0854 50.2574 58.6194 50.2752 58.1533 50.2733C57.2141 50.2777 56.2802 50.1325 55.3867 49.8433C54.5418 49.5774 53.7704 49.1186 53.1333 48.5033C52.4687 47.8336 51.956 47.0287 51.63 46.1433C51.2306 45.0427 51.0395 43.8773 51.0667 42.7067C50.9964 41.2146 51.3799 39.7364 52.1667 38.4667C52.8767 37.4133 53.8467 36.5633 54.9833 35.9967C56.15 35.42 57.4367 35.1233 58.74 35.1367C59.11 35.1433 59.4767 35.16 59.8433 35.1967Z" fill="#4FBDBA"/>
</g>
<defs>
<clipPath id="clip0_2244_3785">
<rect width="80" height="80" fill="white"/>
</clipPath>
</defs>
</svg>
