<svg width="80" height="80" viewBox="0 0 80 80" fill="none" xmlns="http://www.w3.org/2000/svg">
<path d="M39.3 38.3333H32.4V27.3H40.6333C44.8333 27.3 47.1666 29.1666 47.1666 32.6C47.1666 36.3333 44.4 38.3333 39.3 38.3333ZM40.5333 42.1H32.4V54.2333H40.9333C46.1333 54.2333 48.8666 52.1333 48.8666 48.1333C48.8666 44.1333 46.0333 42.1 40.5333 42.1ZM73.3333 17.7V62.3C73.3333 68.3333 68.3333 73.3333 62.3 73.3333H17.7C11.6666 73.3333 6.66663 68.3333 6.66663 62.3V17.7C6.66663 11.6666 11.6666 6.66663 17.7 6.66663H62.3C68.3333 6.66663 73.3333 11.6666 73.3333 17.7ZM53.3333 48.3333C53.3333 43.7333 50.2666 40.4333 45.5666 39.8333V39.6333C48.9 39.0333 51.5333 35.7 51.5333 32.1C51.5333 26.9333 47.5333 23.5 41.6666 23.5H28.1V58.0333H41.5666C48.9333 58.0333 53.3333 54.4 53.3333 48.3333Z" fill="#4FBDBA"/>
</svg>
