<svg width="49" height="40" viewBox="0 0 49 40" fill="none" xmlns="http://www.w3.org/2000/svg">
<path d="M43.7 34.3998H38.9V13.3998L24.5 22.3998L10.1 13.3998V34.3998H5.3V5.5998H8.18L24.5 15.7998L40.82 5.5998H43.7M43.7 0.799805H5.3C2.636 0.799805 0.5 2.9358 0.5 5.5998V34.3998C0.5 35.6728 1.00571 36.8937 1.90589 37.7939C2.80606 38.6941 4.02696 39.1998 5.3 39.1998H43.7C44.973 39.1998 46.1939 38.6941 47.0941 37.7939C47.9943 36.8937 48.5 35.6728 48.5 34.3998V5.5998C48.5 4.32677 47.9943 3.10587 47.0941 2.20569C46.1939 1.30552 44.973 0.799805 43.7 0.799805Z" fill="#F7FAFC"/>
</svg>
