<svg width="80" height="80" viewBox="0 0 80 80" fill="none" xmlns="http://www.w3.org/2000/svg">
<path fill-rule="evenodd" clip-rule="evenodd" d="M42.4999 51.2434C44.8091 53.0955 47.6692 54.1264 50.629 54.1733C53.5889 54.2202 56.4801 53.2806 58.8469 51.5026C61.2136 49.7245 62.9212 47.2093 63.7003 44.3534C64.4795 41.4976 64.2858 38.4637 63.1499 35.73C62.1993 33.4339 60.6256 31.4492 58.6066 30C60.3278 28.7663 61.7301 27.14 62.697 25.2559C63.664 23.3719 64.1678 21.2844 64.1666 19.1667C64.1666 15.6305 62.7619 12.2391 60.2614 9.73862C57.7609 7.23813 54.3695 5.83337 50.8333 5.83337H29.1666C26.3441 5.83326 23.5943 6.72888 21.3132 8.39125C19.0322 10.0536 17.3375 12.397 16.4732 15.084C15.6089 17.7709 15.6197 20.6629 16.5038 23.3434C17.388 26.0238 19.1 28.3546 21.3933 30C19.6728 31.2345 18.271 32.861 17.3041 34.7448C16.3371 36.6287 15.8328 38.7158 15.8328 40.8334C15.8328 42.9509 16.3371 45.038 17.3041 46.9219C18.271 48.8058 19.6728 50.4323 21.3933 51.6667C19.5371 52.9986 18.0542 54.7852 17.087 56.855C16.1199 58.9248 15.7007 61.2085 15.8699 63.4868C16.039 65.7652 16.7908 67.9619 18.053 69.8662C19.3153 71.7705 21.0457 73.3185 23.0782 74.3618C25.1108 75.405 27.3773 75.9085 29.6604 75.8239C31.9434 75.7393 34.1665 75.0694 36.1162 73.8786C38.066 72.6878 39.6771 71.016 40.7949 69.0235C41.9128 67.031 42.4999 64.7847 42.4999 62.5V51.2434ZM29.1666 10.8334C26.9565 10.8334 24.8369 11.7113 23.2741 13.2742C21.7113 14.837 20.8333 16.9566 20.8333 19.1667C20.8333 21.3768 21.7113 23.4965 23.2741 25.0593C24.8369 26.6221 26.9565 27.5 29.1666 27.5H37.4999V10.8334H29.1666ZM37.4999 54.1667H29.1666C27.5184 54.1667 25.9073 54.6554 24.5369 55.5711C23.1665 56.4868 22.0983 57.7883 21.4676 59.311C20.8369 60.8337 20.6719 62.5093 20.9934 64.1258C21.3149 65.7423 22.1086 67.2272 23.2741 68.3926C24.4395 69.558 25.9244 70.3517 27.5409 70.6732C29.1574 70.9948 30.8329 70.8298 32.3556 70.199C33.8784 69.5683 35.1799 68.5002 36.0955 67.1298C37.0112 65.7594 37.4999 64.1482 37.4999 62.5V54.1667ZM29.1666 32.5C26.9565 32.5 24.8369 33.378 23.2741 34.9408C21.7113 36.5036 20.8333 38.6232 20.8333 40.8334C20.8333 43.0435 21.7113 45.1631 23.2741 46.7259C24.8369 48.2887 26.9565 49.1667 29.1666 49.1667H37.4999V32.5H29.1666ZM42.4999 40.8334C42.4999 43.0439 43.3781 45.164 44.9412 46.7271C46.5043 48.2902 48.6244 49.1684 50.8349 49.1684C53.0455 49.1684 55.1656 48.2902 56.7287 46.7271C58.2918 45.164 59.1699 43.0439 59.1699 40.8334C59.1699 38.6228 58.2918 36.5028 56.7287 34.9396C55.1656 33.3765 53.0455 32.4984 50.8349 32.4984C48.6244 32.4984 46.5043 33.3765 44.9412 34.9396C43.3781 36.5028 42.4999 38.6228 42.4999 40.8334ZM50.8333 27.5C53.0434 27.5 55.163 26.6221 56.7258 25.0593C58.2886 23.4965 59.1666 21.3768 59.1666 19.1667C59.1666 16.9566 58.2886 14.837 56.7258 13.2742C55.163 11.7113 53.0434 10.8334 50.8333 10.8334H42.4999V27.5H50.8333Z" fill="#4FBDBA"/>
</svg>
