<svg width="80" height="80" viewBox="0 0 80 80" fill="none" xmlns="http://www.w3.org/2000/svg">
<path d="M50 3.75H2.5V51.25H30V77.5H77.5V30H50V3.75ZM23.1727 15L15.327 37.3906H20.625L21.9009 33.75H30V46.25H7.5V8.75H45V30H34.5831L29.3281 15H23.1727ZM28.8472 28.75H23.6528L26.25 21.3378L28.8472 28.75ZM72.5 35V72.5H35V35H72.5Z" fill="#4FBDBA"/>
<path d="M49.5988 57.575C50.077 58.3431 50.6035 59.0799 51.1752 59.7812C49.3627 60.7588 47.3043 61.2483 45 61.25V66.25C48.772 66.25 52.1422 65.2487 55 63.3088C57.8578 65.2487 61.228 66.25 65 66.25V61.25C62.7005 61.25 60.6422 60.76 58.825 59.7802C59.3966 59.0792 59.9231 58.3427 60.4012 57.575C61.8423 55.2322 62.9021 52.6753 63.5409 50H66.25V45H57.5V41.25H52.5V45H43.75V50H46.4591C47.0979 52.6753 48.1577 55.2322 49.5988 57.575ZM58.3641 50C57.8468 51.7304 57.1062 53.386 56.1609 54.925C55.8078 55.4924 55.4201 56.0376 55 56.5575C54.6105 56.076 54.249 55.5725 53.9172 55.0495C52.9335 53.4763 52.166 51.7779 51.6353 50H58.3641Z" fill="#4FBDBA"/>
</svg>
