<svg width="49" height="48" viewBox="0 0 49 48" fill="none" xmlns="http://www.w3.org/2000/svg">
<g clip-path="url(#clip0_2249_3542)">
<path d="M0.5 3.438C0.5 1.539 2.078 0 4.025 0H44.975C46.922 0 48.5 1.539 48.5 3.438V44.562C48.5 46.461 46.922 48 44.975 48H4.025C2.078 48 0.5 46.461 0.5 44.562V3.438ZM15.329 40.182V18.507H8.126V40.182H15.329ZM11.729 15.546C14.24 15.546 15.803 13.884 15.803 11.802C15.758 9.675 14.243 8.058 11.777 8.058C9.311 8.058 7.7 9.678 7.7 11.802C7.7 13.884 9.263 15.546 11.681 15.546H11.729ZM26.453 40.182V28.077C26.453 27.429 26.501 26.781 26.693 26.319C27.212 25.026 28.397 23.685 30.389 23.685C32.996 23.685 34.037 25.671 34.037 28.587V40.182H41.24V27.75C41.24 21.09 37.688 17.994 32.948 17.994C29.126 17.994 27.413 20.094 26.453 21.573V21.648H26.405C26.4209 21.623 26.4369 21.598 26.453 21.573V18.507H19.253C19.343 20.541 19.253 40.182 19.253 40.182H26.453Z" fill="#F7FAFC"/>
</g>
<defs>
<clipPath id="clip0_2249_3542">
<rect width="48" height="48" fill="white" transform="translate(0.5)"/>
</clipPath>
</defs>
</svg>
