<svg width="80" height="80" viewBox="0 0 80 80" fill="none" xmlns="http://www.w3.org/2000/svg">
<path d="M38.57 0.000107644C37.9833 0.000107644 37.5367 0.00344098 37.3767 0.023441C36.9726 0.0638474 36.5681 0.100516 36.1633 0.133441C24.8067 1.15344 14.1633 7.28344 7.42333 16.7068C3.6959 21.8785 1.27276 27.8741 0.36 34.1834C0.04 36.3801 0 37.0301 0 40.0068C0 42.9834 0.04 43.6368 0.36 45.8334C2.53333 60.8534 13.2267 73.4734 27.7233 78.1501C30.32 78.9834 33.0567 79.5568 36.17 79.9001C37.38 80.0334 42.62 80.0334 43.8333 79.9001C49.2033 79.3068 53.7567 77.9768 58.2433 75.6868C58.9333 75.3334 59.0667 75.2401 58.9733 75.1601C58.9067 75.1168 55.9733 71.1834 52.4567 66.4268L46.06 57.7868L38.0467 45.9268C35.3807 41.9586 32.6895 38.0074 29.9733 34.0734C29.9433 34.0668 29.9133 39.3368 29.8967 45.7734C29.8733 57.0401 29.8633 57.4901 29.7233 57.7568C29.5874 58.0692 29.3437 58.3224 29.0367 58.4701C28.7867 58.5934 28.57 58.6168 27.3867 58.6168H26.03L25.67 58.3901C25.4475 58.2506 25.2667 58.0537 25.1467 57.8201L24.98 57.4668L25 41.7901L25.0233 26.1068L25.2633 25.8001C25.4272 25.6084 25.6235 25.4471 25.8433 25.3234C26.1633 25.1668 26.29 25.1534 27.6433 25.1534C29.2367 25.1534 29.5033 25.2134 29.9167 25.6668C33.1605 30.4943 36.3772 35.3399 39.5667 40.2034C44.8246 48.1722 50.0857 56.1389 55.35 64.1034L61.6833 73.7001L62.0033 73.4901C65.0525 71.464 67.817 69.0392 70.2233 66.2801C75.2626 60.5119 78.531 53.4126 79.6367 45.8334C79.9567 43.6334 79.9967 42.9868 79.9967 40.0068C79.9967 37.0301 79.9567 36.3801 79.6367 34.1834C77.4633 19.1634 66.7733 6.54344 52.2767 1.86677C49.5662 1.00505 46.7752 0.420941 43.9467 0.123441C42.1568 0.0387287 40.3652 -0.00239462 38.5733 0.000107644H38.57ZM52.1333 24.0568C53.29 24.0568 53.4933 24.0734 53.7533 24.2134C53.9395 24.3074 54.1053 24.4374 54.2409 24.5959C54.3765 24.7544 54.4793 24.9383 54.5433 25.1368C54.6033 25.3368 54.62 29.6868 54.6033 39.4834L54.5833 53.5434L52.1033 49.7434L49.6167 45.9434V35.7234C49.6167 29.1168 49.65 25.4001 49.6933 25.2234C49.7492 25.0149 49.8469 24.82 49.9804 24.6504C50.1139 24.4808 50.2805 24.3401 50.47 24.2368C50.79 24.0701 50.9033 24.0568 52.1367 24.0568H52.1333Z" fill="#4FBDBA"/>
</svg>
