<svg width="80" height="72" viewBox="0 0 80 72" fill="none" xmlns="http://www.w3.org/2000/svg">
<path d="M40 28.8667C36.0675 28.8667 32.865 32.0692 32.865 36.0017C32.865 39.9342 36.0675 43.1367 40 43.1367C43.9325 43.1367 47.135 39.9342 47.135 36.0017C47.135 32.0692 43.9325 28.8667 40 28.8667ZM20.025 50.1817L18.45 49.7917C6.73 46.8217 0 41.7967 0 35.9892C0 30.1817 6.7325 25.1567 18.45 22.1867L20.025 21.7967L20.4675 23.3592C21.6564 27.4517 23.1764 31.4407 25.0125 35.2867L25.35 35.9892L25.0125 36.7042C23.1726 40.5485 21.6525 44.5378 20.4675 48.6317L20.025 50.1817ZM17.7225 25.8317C8.815 28.3317 3.3475 32.1717 3.3475 35.9892C3.3475 39.8067 8.8175 43.6317 17.7225 46.1467C18.8141 42.6783 20.132 39.2852 21.6675 35.9892C20.1298 32.6941 18.8119 29.3008 17.7225 25.8317ZM59.975 50.1817L59.5325 48.6192C58.3456 44.53 56.8256 40.545 54.9875 36.7042L54.65 35.9892L54.9875 35.2742C56.8274 31.4299 58.3475 27.4405 59.5325 23.3467L59.975 21.7967L61.55 22.1867C73.27 25.1567 80 30.1817 80 35.9892C80 41.7967 73.2675 46.8217 61.55 49.7917L59.975 50.1817ZM58.3325 35.9892C59.8731 39.283 61.1911 42.6764 62.2775 46.1467C71.1975 43.6342 76.6525 39.8067 76.6525 35.9892C76.6525 32.1717 71.1825 28.3467 62.2775 25.8317C61.1833 29.2992 59.8655 32.6921 58.3325 35.9892ZM17.695 25.8192L17.2525 24.2567C13.9575 12.6417 14.96 4.30917 20 1.40417C24.9475 -1.44833 32.8775 1.92417 41.1975 10.4667L42.33 11.6267L41.1975 12.7867C38.2429 15.8607 35.5432 19.17 33.125 22.6817L32.67 23.3192L31.8875 23.3842C27.6337 23.7199 23.4141 24.3997 19.27 25.4167L17.695 25.8192ZM24.0225 3.72417C23.125 3.72417 22.33 3.90667 21.665 4.29667C18.3575 6.21167 17.7725 12.8517 20.05 21.8092C23.6036 21.0143 27.2055 20.4531 30.8325 20.1292C32.9206 17.1551 35.204 14.3231 37.6675 11.6517C32.4725 6.58667 27.55 3.72417 24.0225 3.72417ZM55.99 71.5867C55.9775 71.5867 55.9775 71.5867 55.99 71.5867C51.2375 71.5867 45.13 68.0192 38.8025 61.5092L37.67 60.3492L38.8025 59.1892C41.7571 56.1151 44.4568 52.8059 46.875 49.2942L47.3175 48.6567L48.1 48.5792C52.3593 48.2547 56.584 47.5748 60.73 46.5467L62.305 46.1567L62.7475 47.7192C66.0425 59.3342 65.04 67.6542 60 70.5567C58.7815 71.257 57.3952 71.6147 55.99 71.5867ZM42.33 60.3242C47.525 65.3892 52.4475 68.2542 55.975 68.2542H55.9875C56.8725 68.2542 57.6675 68.0592 58.3325 67.6817C61.64 65.7667 62.24 59.1267 59.9475 50.1692C56.3946 50.9649 52.7923 51.522 49.165 51.8367C47.077 54.8147 44.7936 57.6485 42.33 60.3242ZM62.305 25.8192L60.73 25.4167C56.581 24.403 52.3575 23.7234 48.1 23.3842L47.3175 23.3192L46.875 22.6817C44.4568 19.17 41.7571 15.8607 38.8025 12.7867L37.67 11.6267L38.8025 10.4667C47.1225 1.92417 55.0525 -1.44833 60 1.40417C65.04 4.30667 66.0425 12.6417 62.7475 24.2567L62.305 25.8192ZM49.1675 20.1292C52.7946 20.4522 56.3965 21.0134 59.95 21.8092C62.2425 12.8517 61.6425 6.20917 58.335 4.29667C55.04 2.39667 48.8425 5.31167 42.3325 11.6542C44.7893 14.3313 47.0723 17.1629 49.1675 20.1317V20.1292ZM24.0225 71.5867C22.615 71.6117 21.2225 71.2617 20 70.5592C14.96 67.6567 13.9575 59.3342 17.2525 47.7217L17.695 46.1592L19.27 46.5492C23.125 47.5267 27.37 48.2017 31.8875 48.5817L32.67 48.6592L33.1125 49.2967C35.5307 52.8084 38.2304 56.1176 41.185 59.1917L42.3175 60.3517L41.185 61.5117C34.87 68.0217 28.7625 71.5892 24.0225 71.5892V71.5867ZM20.0525 50.1692C17.76 59.1267 18.36 65.7692 21.6675 67.6817C24.9625 69.5567 31.1475 66.6667 37.67 60.3242C35.2064 57.6485 32.923 54.8122 30.835 51.8342C27.2075 51.5204 23.6053 50.9658 20.0525 50.1692ZM40 52.2642C37.2525 52.2642 34.44 52.1467 31.615 51.9117L30.8325 51.8467L30.3775 51.1967C28.7818 48.9039 27.283 46.5451 25.885 44.1267C24.4841 41.7081 23.1855 39.2318 21.9925 36.7042L21.655 35.9892L21.9925 35.2742C24.3826 30.2201 27.1872 25.3727 30.3775 20.7817L30.8325 20.1317L31.615 20.0667C37.1951 19.5967 42.8049 19.5967 48.385 20.0667L49.1675 20.1317L49.6225 20.7817C52.817 25.3701 55.6217 30.2179 58.0075 35.2742L58.345 35.9892L58.0075 36.7042C55.6265 41.763 52.8215 46.6112 49.6225 51.1967L49.1675 51.8467L48.385 51.9117C45.5961 52.1451 42.7987 52.2627 40 52.2642ZM32.6825 48.6442C37.605 49.0217 42.395 49.0217 47.33 48.6442C50.0823 44.6139 52.5283 40.3829 54.6475 35.9867C52.5373 31.5832 50.0865 27.3512 47.3175 23.3292C42.4465 22.9517 37.5535 22.9517 32.6825 23.3292C29.9115 27.3499 27.4607 31.5821 25.3525 35.9867C27.4723 40.3851 29.9227 44.6164 32.6825 48.6442Z" fill="#4FBDBA"/>
</svg>
