<svg width="80" height="80" viewBox="0 0 80 80" fill="none" xmlns="http://www.w3.org/2000/svg">
<path d="M40.0001 6.66663C44.3775 6.66663 48.712 7.52882 52.7562 9.20397C56.8004 10.8791 60.475 13.3344 63.5703 16.4297C66.6656 19.525 69.1209 23.1997 70.7961 27.2438C72.4712 31.288 73.3334 35.6226 73.3334 40C73.3334 48.8405 69.8215 57.319 63.5703 63.5702C57.3191 69.8214 48.8406 73.3333 40.0001 73.3333C35.6227 73.3333 31.2882 72.4711 27.244 70.7959C23.1998 69.1208 19.5251 66.6655 16.4299 63.5702C10.1786 57.319 6.66675 48.8405 6.66675 40C6.66675 31.1594 10.1786 22.6809 16.4299 16.4297C22.6811 10.1785 31.1595 6.66663 40.0001 6.66663ZM33.3334 51.1C33.8667 52.9 33.8001 54.5666 33.3334 56.1C33.3334 56.2666 33.2001 56.4333 33.1334 56.6666C33.0667 56.6666 33.0001 56.9 32.9001 57.0666C32.5334 57.8666 32.0001 58.6333 31.3667 59.3C29.4334 61.4333 26.6667 62.2333 25.5667 61.5666C24.3001 60.8333 25.0001 57.8333 27.2001 55.4666C29.6001 52.9333 33.0667 51.2666 33.0667 51.2666L33.3334 51.1ZM60.9001 20.9333C59.4001 15 49.5667 13.0666 40.3001 16.3666C34.7667 18.3333 28.7667 21.4 24.4667 25.4333C19.3667 30.2333 18.5334 34.4 18.8667 36.1333C20.0001 42.2666 28.4667 46.3 31.9334 49.2666V49.3C30.9334 49.8 23.4667 53.5666 21.6667 57.4333C19.8667 61.5 22.0001 64.4333 23.3334 64.8333C27.8001 66.0333 32.3001 63.8666 34.7001 60.2333C37.0334 56.7666 36.8667 52.2666 35.8334 50C37.2334 49.6666 38.8667 49.5 40.9334 49.7333C46.8001 50.4333 47.9334 54.0666 47.7001 55.6C47.5001 57.1333 46.2667 57.9666 45.8667 58.2333C45.4667 58.4666 45.3334 58.5666 45.3667 58.7666C45.4001 59.0333 45.6001 59.0333 45.9334 58.9666C46.4334 58.8666 49.0334 57.7333 49.1334 54.9C49.2667 51.3 45.8334 47.3 39.7667 47.4C37.2667 47.4666 35.7001 47.7 34.5667 48.1333L34.3001 47.8333C30.5334 43.8333 23.6001 41 23.9001 35.6C24.0001 33.6333 24.6667 28.5 37.2334 22.2333C47.5001 17.1 55.7334 18.5 57.1667 21.6666C59.2001 26.1 52.7667 34.4 42.1001 35.6C38.0334 36.0666 35.8667 34.4666 35.3334 33.9C34.7667 33.3333 34.7001 33.2333 34.5001 33.3333C34.1334 33.5666 34.3667 34.1 34.5001 34.4333C34.8001 35.2666 36.1334 36.6666 38.3334 37.4666C40.3001 38.1 45.1001 38.4666 50.8667 36.2333C57.3334 33.7333 62.4001 26.7666 60.9001 20.9333Z" fill="#4FBDBA"/>
</svg>
