<svg width="49" height="48" viewBox="0 0 49 48" fill="none" xmlns="http://www.w3.org/2000/svg">
<path d="M38.6 9.82012C36.7664 7.96797 34.5823 6.49945 32.1753 5.50022C29.7682 4.50099 27.1862 3.99104 24.58 4.00012C13.66 4.00012 4.75998 12.9001 4.75998 23.8201C4.75998 27.3201 5.67998 30.7201 7.39998 33.7201L4.59998 44.0001L15.1 41.2401C18 42.8201 21.26 43.6601 24.58 43.6601C35.5 43.6601 44.4 34.7601 44.4 23.8401C44.4 18.5401 42.34 13.5601 38.6 9.82012ZM24.58 40.3001C21.62 40.3001 18.72 39.5001 16.18 38.0001L15.58 37.6401L9.33998 39.2801L11 33.2001L10.6 32.5801C8.95547 29.9541 8.08226 26.9186 8.07998 23.8201C8.07998 14.7401 15.48 7.34012 24.56 7.34012C28.96 7.34012 33.1 9.06012 36.2 12.1801C37.7349 13.708 38.9514 15.5254 39.7788 17.527C40.6062 19.5285 41.028 21.6743 41.02 23.8401C41.06 32.9201 33.66 40.3001 24.58 40.3001ZM33.62 27.9801C33.12 27.7401 30.68 26.5401 30.24 26.3601C29.78 26.2001 29.46 26.1201 29.12 26.6001C28.78 27.1001 27.84 28.2201 27.56 28.5401C27.28 28.8801 26.98 28.9201 26.48 28.6601C25.98 28.4201 24.38 27.8801 22.5 26.2001C21.02 24.8801 20.04 23.2601 19.74 22.7601C19.46 22.2601 19.7 22.0001 19.96 21.7401C20.18 21.5201 20.46 21.1601 20.7 20.8801C20.94 20.6001 21.04 20.3801 21.2 20.0601C21.36 19.7201 21.28 19.4401 21.16 19.2001C21.04 18.9601 20.04 16.5201 19.64 15.5201C19.24 14.5601 18.82 14.6801 18.52 14.6601H17.56C17.22 14.6601 16.7 14.7801 16.24 15.2801C15.8 15.7801 14.52 16.9801 14.52 19.4201C14.52 21.8601 16.3 24.2201 16.54 24.5401C16.78 24.8801 20.04 29.8801 25 32.0201C26.18 32.5401 27.1 32.8401 27.82 33.0601C29 33.4401 30.08 33.3801 30.94 33.2601C31.9 33.1201 33.88 32.0601 34.28 30.9001C34.7 29.7401 34.7 28.7601 34.56 28.5401C34.42 28.3201 34.12 28.2201 33.62 27.9801Z" fill="#F7FAFC"/>
</svg>
