<svg width="80" height="80" viewBox="0 0 80 80" fill="none" xmlns="http://www.w3.org/2000/svg">
<path d="M11.4 40C11.4 35.8666 12.3 31.9333 13.8666 28.3333L27.5333 65.7333C22.6947 63.3972 18.6138 59.7429 15.7597 55.1906C12.9057 50.6383 11.3945 45.3729 11.4 40ZM59.3 38.5666C59.3 41 58.3333 43.8333 57.1333 47.8L54.2666 57.3333L43.9333 26.6666L47.2 26.3333C48.7666 26.1333 48.5666 23.8666 47.0333 23.9666C47.0333 23.9666 42.4 24.3333 39.4 24.3333L31.8666 23.9666C30.3333 23.8666 30.1666 26.2333 31.6666 26.3333L34.7 26.6666L39.1666 38.8L32.9 57.5666L22.4666 26.6666L25.7666 26.3333C27.3 26.1333 27.1 23.8666 25.5666 23.9666C25.5666 23.9666 20.9333 24.3333 17.9333 24.3333L16.1 24.3C21.2333 16.5333 30 11.4 40 11.4C47.4333 11.4 54.2333 14.2666 59.3 18.9H58.9333C56.1333 18.9 54.1333 21.3333 54.1333 23.9666C54.1333 26.3333 55.5 28.3333 56.9333 30.6666C58.0333 32.5666 59.3 35 59.3 38.5666ZM40.5 42.5L49.3 66.5666L49.5 66.9666C46.5333 68.0333 43.3333 68.6 40 68.6C37.2 68.6 34.5 68.2 31.9333 67.4333L40.5 42.5ZM65.1 26.2666C67.4046 30.4766 68.6086 35.2005 68.6 40C68.6 50.5333 62.8666 59.7666 54.3666 64.7L63.1 39.4666C64.7333 35.4 65.3 32.1333 65.3 29.2333L65.1 26.2666ZM40 6.66663C44.3774 6.66663 48.7119 7.52882 52.7561 9.20397C56.8003 10.8791 60.4749 13.3344 63.5702 16.4297C66.6655 19.525 69.1208 23.1997 70.7959 27.2438C72.4711 31.288 73.3333 35.6226 73.3333 40C73.3333 48.8405 69.8214 57.319 63.5702 63.5702C57.319 69.8214 48.8405 73.3333 40 73.3333C35.6226 73.3333 31.288 72.4711 27.2438 70.7959C23.1997 69.1208 19.525 66.6655 16.4297 63.5702C10.1785 57.319 6.66663 48.8405 6.66663 40C6.66663 31.1594 10.1785 22.6809 16.4297 16.4297C22.6809 10.1785 31.1594 6.66663 40 6.66663ZM40 71.8C57.5333 71.8 71.8 57.5333 71.8 40C71.8 22.4666 57.5333 8.19996 40 8.19996C22.4666 8.19996 8.19996 22.4666 8.19996 40C8.19996 57.5333 22.4666 71.8 40 71.8Z" fill="#718096"/>
</svg>
